HIERARCHY
ROOT Hips
{
    OFFSET   0.000000   0.000000   0.000000
    CHANNELS 6 Xposition Yposition Zposition Zrotation Xrotation Yrotation
    JOINT Chest
    {
        OFFSET   0.000000   8.007230   0.000000
        CHANNELS 3 Zrotation Xrotation Yrotation
        JOINT Chest2
        {
            OFFSET   0.000000  22.077100   0.000000
            CHANNELS 3 Zrotation Xrotation Yrotation
            JOINT Neck
            {
                OFFSET   0.000000  23.254800  -0.000021
                CHANNELS 3 Zrotation Xrotation Yrotation
                JOINT Head
                {
                    OFFSET   0.000000  14.370000   1.956610
                    CHANNELS 3 Zrotation Xrotation Yrotation
                    End Site
                    {
                        OFFSET   0.000000  19.566000   0.000000
                    }
                }
            }
            JOINT LeftCollar
            {
                OFFSET   3.911900  19.017000  -0.467063
                CHANNELS 3 Zrotation Xrotation Yrotation
                JOINT LeftShoulder
                {
                    OFFSET  10.383700   0.000000   0.000000
                    CHANNELS 3 Zrotation Xrotation Yrotation
                    JOINT LeftElbow
                    {
                        OFFSET  26.662100   0.001529   0.000325
                        CHANNELS 3 Zrotation Xrotation Yrotation
                        JOINT LeftWrist
                        {
                            OFFSET  28.869000  -0.000011  -0.000096
                            CHANNELS 3 Zrotation Xrotation Yrotation
                            JOINT LeftFinger0
                            {
                                OFFSET   2.044650  -2.323460   3.252850
                                CHANNELS 3 Zrotation Xrotation Yrotation
                                JOINT LeftFinger01
                                {
                                    OFFSET   3.088130   0.000000   0.000000
                                    CHANNELS 3 Zrotation Xrotation Yrotation
                                    JOINT LeftFinger02
                                    {
                                        OFFSET   2.639460   0.000000   0.000000
                                        CHANNELS 3 Zrotation Xrotation Yrotation
                                        End Site
                                        {
                                            OFFSET   2.582190   0.000000   0.000000
                                        }
                                    }
                                }
                            }
                            JOINT LeftFinger1
                            {
                                OFFSET   8.364480   0.000000   3.252850
                                CHANNELS 3 Zrotation Xrotation Yrotation
                                JOINT LeftFinger11
                                {
                                    OFFSET   4.646930   0.000000   0.000000
                                    CHANNELS 3 Zrotation Xrotation Yrotation
                                    JOINT LeftFinger12
                                    {
                                        OFFSET   2.323460   0.000000   0.000000
                                        CHANNELS 3 Zrotation Xrotation Yrotation
                                        End Site
                                        {
                                            OFFSET   2.273050   0.000000   0.000000
                                        }
                                    }
                                }
                            }
                            JOINT LeftFinger2
                            {
                                OFFSET   8.364480   0.000016   1.078090
                                CHANNELS 3 Zrotation Xrotation Yrotation
                                JOINT LeftFinger21
                                {
                                    OFFSET   5.111620   0.000000   0.000000
                                    CHANNELS 3 Zrotation Xrotation Yrotation
                                    JOINT LeftFinger22
                                    {
                                        OFFSET   2.788160   0.000017   0.000000
                                        CHANNELS 3 Zrotation Xrotation Yrotation
                                        End Site
                                        {
                                            OFFSET   2.727660   0.000000   0.000000
                                        }
                                    }
                                }
                            }
                            JOINT LeftFinger3
                            {
                                OFFSET   7.899780   0.000015  -1.078090
                                CHANNELS 3 Zrotation Xrotation Yrotation
                                JOINT LeftFinger31
                                {
                                    OFFSET   4.646920   0.000000   0.000000
                                    CHANNELS 3 Zrotation Xrotation Yrotation
                                    JOINT LeftFinger32
                                    {
                                        OFFSET   2.323470   0.000000   0.000000
                                        CHANNELS 3 Zrotation Xrotation Yrotation
                                        End Site
                                        {
                                            OFFSET   2.273050   0.000000   0.000000
                                        }
                                    }
                                }
                            }
                            JOINT LeftFinger4
                            {
                                OFFSET   7.435090   0.000000  -3.252850
                                CHANNELS 3 Zrotation Xrotation Yrotation
                                JOINT LeftFinger41
                                {
                                    OFFSET   3.717550   0.000000   0.000000
                                    CHANNELS 3 Zrotation Xrotation Yrotation
                                    JOINT LeftFinger42
                                    {
                                        OFFSET   1.858760   0.000000   0.000000
                                        CHANNELS 3 Zrotation Xrotation Yrotation
                                        End Site
                                        {
                                            OFFSET   1.818440   0.000000   0.000000
                                        }
                                    }
                                }
                            }
                        }
                    }
                }
            }
            JOINT RightCollar
            {
                OFFSET  -3.911900  19.017000  -0.467062
                CHANNELS 3 Zrotation Xrotation Yrotation
                JOINT RightShoulder
                {
                    OFFSET -10.383700   0.000015   0.000000
                    CHANNELS 3 Zrotation Xrotation Yrotation
                    JOINT RightElbow
                    {
                        OFFSET -26.662100   0.001341   0.000385
                        CHANNELS 3 Zrotation Xrotation Yrotation
                        JOINT RightWrist
                        {
                            OFFSET -28.869000   0.000025  -0.000080
                            CHANNELS 3 Zrotation Xrotation Yrotation
                            JOINT RightFinger0
                            {
                                OFFSET  -2.044650  -2.323490   3.252850
                                CHANNELS 3 Zrotation Xrotation Yrotation
                                JOINT RightFinger01
                                {
                                    OFFSET  -3.088130   0.000000   0.000000
                                    CHANNELS 3 Zrotation Xrotation Yrotation
                                    JOINT RightFinger02
                                    {
                                        OFFSET  -2.639460   0.000000   0.000000
                                        CHANNELS 3 Zrotation Xrotation Yrotation
                                        End Site
                                        {
                                            OFFSET  -2.582190   0.000000   0.000000
                                        }
                                    }
                                }
                            }
                            JOINT RightFinger1
                            {
                                OFFSET  -8.364480   0.000000   3.252850
                                CHANNELS 3 Zrotation Xrotation Yrotation
                                JOINT RightFinger11
                                {
                                    OFFSET  -4.646930   0.000000   0.000000
                                    CHANNELS 3 Zrotation Xrotation Yrotation
                                    JOINT RightFinger12
                                    {
                                        OFFSET  -2.323470   0.000000   0.000000
                                        CHANNELS 3 Zrotation Xrotation Yrotation
                                        End Site
                                        {
                                            OFFSET  -2.273050   0.000000   0.000000
                                        }
                                    }
                                }
                            }
                            JOINT RightFinger2
                            {
                                OFFSET  -8.364480   0.000000   1.078090
                                CHANNELS 3 Zrotation Xrotation Yrotation
                                JOINT RightFinger21
                                {
                                    OFFSET  -5.111610   0.000000   0.000000
                                    CHANNELS 3 Zrotation Xrotation Yrotation
                                    JOINT RightFinger22
                                    {
                                        OFFSET  -2.788160   0.000000   0.000000
                                        CHANNELS 3 Zrotation Xrotation Yrotation
                                        End Site
                                        {
                                            OFFSET  -2.727660   0.000000   0.000000
                                        }
                                    }
                                }
                            }
                            JOINT RightFinger3
                            {
                                OFFSET  -7.899780   0.000000  -1.078090
                                CHANNELS 3 Zrotation Xrotation Yrotation
                                JOINT RightFinger31
                                {
                                    OFFSET  -4.646920   0.000000   0.000000
                                    CHANNELS 3 Zrotation Xrotation Yrotation
                                    JOINT RightFinger32
                                    {
                                        OFFSET  -2.323470   0.000000   0.000000
                                        CHANNELS 3 Zrotation Xrotation Yrotation
                                        End Site
                                        {
                                            OFFSET  -2.273050   0.000000   0.000000
                                        }
                                    }
                                }
                            }
                            JOINT RightFinger4
                            {
                                OFFSET  -7.435090   0.000000  -3.252850
                                CHANNELS 3 Zrotation Xrotation Yrotation
                                JOINT RightFinger41
                                {
                                    OFFSET  -3.717550   0.000000   0.000000
                                    CHANNELS 3 Zrotation Xrotation Yrotation
                                    JOINT RightFinger42
                                    {
                                        OFFSET  -1.858770   0.000000   0.000000
                                        CHANNELS 3 Zrotation Xrotation Yrotation
                                        End Site
                                        {
                                            OFFSET  -1.818440   0.000000   0.000000
                                        }
                                    }
                                }
                            }
                        }
                    }
                }
            }
        }
    }
    JOINT LeftHip
    {
        OFFSET   9.783010   0.000000   0.000000
        CHANNELS 3 Zrotation Xrotation Yrotation
        JOINT LeftKnee
        {
            OFFSET   0.000070 -41.789100   0.000028
            CHANNELS 3 Zrotation Xrotation Yrotation
            JOINT LeftAnkle
            {
                OFFSET   0.000087 -41.133200  -0.000100
                CHANNELS 3 Zrotation Xrotation Yrotation
                JOINT LeftToe
                {
                    OFFSET   0.000000  -6.358960  14.674500
                    CHANNELS 3 Zrotation Xrotation Yrotation
                    End Site
                    {
                        OFFSET   0.000000   0.000000   3.913200
                    }
                }
            }
        }
    }
    JOINT RightHip
    {
        OFFSET  -9.783020   0.000000   0.000000
        CHANNELS 3 Zrotation Xrotation Yrotation
        JOINT RightKnee
        {
            OFFSET   0.000044 -41.789100  -0.000870
            CHANNELS 3 Zrotation Xrotation Yrotation
            JOINT RightAnkle
            {
                OFFSET  -0.000090 -41.133200  -0.000245
                CHANNELS 3 Zrotation Xrotation Yrotation
                JOINT RightToe
                {
                    OFFSET   0.000000  -6.358960  14.674500
                    CHANNELS 3 Zrotation Xrotation Yrotation
                    End Site
                    {
                        OFFSET   0.000000   0.000000   3.913200
                    }
                }
            }
        }
    }
}
MOTION
Frames: 4
Frame Time:   0.016667
  0.721327  89.536200  -0.564671  -1.078950 -14.246100  -2.902850   0.888043  18.378800  -0.849815   2.274140  36.738200  -2.204890   6.221380  -5.669320   0.617079  10.491300 -11.088900  -5.234340  -2.131460  -5.119280   8.424430 -58.204800   9.960190 -68.447400   7.254760  -3.575710 -99.134700  17.768800 -11.440900 -25.157400  49.144300  35.943700 -52.331800 -20.159200   0.001007   0.005194  -5.079610   0.000255   0.003457   4.242580  -0.027033  -0.325382  -0.005665  -0.003649  -0.007458  -0.003957  -0.002557   0.003564  -3.484130   0.018961  -0.325747  -3.484610  -0.000949  -0.002030  -2.320770  -0.000624  -0.000532  10.536000  -0.061223  -0.320609   0.000000  -0.002150   0.000144  -0.007465  -0.001434  -0.000597  10.010000   0.105187   0.594719   0.000000  -0.005747   0.000289  -0.000000  -0.003828  -0.000170  -0.222993  -4.672930  12.375900  48.755700   8.747030  74.293100 -13.183000 -10.191000  88.379100 -27.618300 -13.204200  29.835700 -55.685600  42.248700  80.597600  19.221000  -0.002258  -0.003131   4.610500  -0.001144   0.000314   4.045630   0.551799   7.798450   3.339940   0.002125  -0.002520   2.337940   0.008362  -0.002680   2.950190   0.351569   6.817180   2.971750   0.002460  -0.002566   1.979160   0.001617  -0.001246   6.861320   0.804967   6.659170   6.908300   0.002269  -0.001731   4.600950   0.001479  -0.000847   6.235700   0.453231   4.139910   9.381010  -0.000227  -0.001334   6.247750   0.000000  -0.001188   2.649260  14.674400   2.522820   0.187690   1.211400  12.468500  -2.401980  -1.605960   2.002580  -0.000000   0.000000   0.000000  -1.279380  12.839700  -5.464120  -1.850650   4.230060 -11.680200   1.119980  -2.155300  -2.183630  -0.000000   0.000000   0.000000
  0.721901  89.541100  -0.552387  -1.080260 -14.191000  -2.902740   0.877605  18.383700  -0.846405   2.250120  36.748400  -2.194240   6.268090  -5.752200   0.630790  10.577700 -11.244800  -5.497870  -2.131510  -5.145550   8.418320 -58.069300   9.992110 -68.307800   7.319750  -3.549950 -99.555100  17.926600 -11.299700 -25.589300  49.188200  35.908800 -52.977800 -20.145200   0.001017   0.005527  -5.072580   0.000268   0.003512   3.908720  -0.049956  -0.724569  -0.005762  -0.003712  -0.007552  -0.004029  -0.002603   0.003625  -3.659160   0.046022  -0.724777  -3.659660  -0.000960  -0.002043  -2.437320  -0.000623  -0.000572  10.204400  -0.129315  -0.714701   0.000000  -0.002113   0.000173  -0.007539  -0.001412  -0.000563  10.010900   0.046079   0.260533   0.000000  -0.005798   0.000337  -0.000000  -0.003864  -0.000121  -0.215014  -4.686430  12.364900  48.858500   8.828480  74.015600 -13.219500 -10.128200  88.857500 -27.613400 -13.014200  30.202400 -55.758100  42.258000  80.885400  19.096600  -0.002268  -0.003106   4.548300  -0.000490  -0.000828   4.041500   0.565650   7.953860   3.338880   0.002113  -0.002511   2.337200   0.008361  -0.002650   2.986430   0.363813   6.941810   3.008490   0.002460  -0.002561   2.003630   0.001621  -0.001261   6.846830   0.818335   6.782490   6.895360   0.002289  -0.001771   4.592310   0.001490  -0.000894   6.249200   0.466281   4.250960   9.399800  -0.000196  -0.001328   6.260270   0.000000  -0.001191   2.663050  14.639400   2.525620   0.178191   1.212900  12.451000  -2.401160  -1.616700   2.016300  -0.000000   0.000000   0.000000  -1.282380  12.802100  -5.477140  -1.851320   4.231150 -11.670900   1.128300  -2.160830  -2.183740   0.000000   0.000000   0.000000
  0.723572  89.542500  -0.532998  -1.086250 -14.132500  -2.902310   0.877241  18.383000  -0.861412   2.255640  36.746500  -2.227580   6.305030  -5.834380   0.643804  10.643300 -11.401000  -5.717250  -2.169960  -5.130740   8.433750 -58.005500  10.055400 -68.163600   7.367700  -3.494620 -100.186000  18.100000 -11.021900 -25.896300  49.233600  35.979500 -53.412000 -20.204700   0.001031   0.005853  -5.102320   0.000280   0.003550   3.629750  -0.054684  -0.896610  -0.005854  -0.003771  -0.007643  -0.004097  -0.002648   0.003687  -3.787920   0.059234  -0.896427  -3.788630  -0.000964  -0.002057  -2.523230  -0.000625  -0.000615   9.954910  -0.155370  -0.884874   0.000000  -0.002082   0.000199  -0.007612  -0.001393  -0.000536  10.011100   0.023418   0.133276   0.000000  -0.005849   0.000392  -0.000000  -0.003898  -0.000047  -0.192779  -4.664640  12.369300  48.991200   8.950530  73.818800 -13.234000   0.005055  89.889900 -27.709600 -12.798000  30.472400 -55.814100  42.338800  81.148700  19.122600  -0.002278  -0.003065   4.561290   0.000256  -0.002057   4.094040   0.572824   7.928730   3.382300   0.002099  -0.002501   2.367610   0.008360  -0.002622   3.078870   0.375229   6.915910   3.101550   0.002460  -0.002558   2.065610   0.001625  -0.001275   6.882630   0.816148   6.728880   6.930660   0.002307  -0.001813   4.615840   0.001502  -0.000942   6.316940   0.464782   4.195180   9.499220  -0.000167  -0.001322   6.326470   0.000040  -0.001194   2.681160  14.609600   2.524700   0.168509   1.186670  12.439400  -2.401540  -1.614250   2.022990  -0.000000   0.000000   0.000000  -1.277560  12.764400  -5.486550  -1.850950   4.210670 -11.674100   1.134620  -2.156380  -2.177020   0.000000   0.000000  -0.000000
  0.727549  89.542700  -0.508451  -1.095050 -14.077800  -2.902720   0.883864  18.382200  -0.888076   2.280060  36.744000  -2.287600   6.327960  -5.881160   0.651031  10.691400 -11.488700  -5.911020  -2.229750  -5.098630   8.459300 -57.986600  10.124500 -68.025400   7.411980  -3.426130 -100.858000  18.261700 -10.715800 -26.026900  49.244700  36.049700 -53.610400 -20.306300   0.001044   0.006176  -5.153160   0.000293   0.003585   3.401000  -0.056139  -0.935559  -0.005941  -0.003830  -0.007731  -0.004162  -0.002690   0.003747  -3.882700   0.063242  -0.935081  -3.883300  -0.000966  -0.002070  -2.586290  -0.000629  -0.000658   9.759490  -0.159165  -0.923612   0.000000  -0.002051   0.000223  -0.007682  -0.001373  -0.000511  10.011100   0.019927   0.114270   0.000000  -0.005899   0.000445  -0.000000  -0.003932  -0.000000  -0.162966  -4.624240  12.378200  49.148700   9.085520  73.670300 -13.333000  -9.882370  90.193700 -27.854400 -12.621400  30.588800 -55.835500  42.429100  81.280000  19.220200  -0.002290  -0.003021   4.610110   0.000973  -0.003249   4.176590   0.574594   7.818130   3.449430   0.002085  -0.002492   2.414620   0.008358  -0.002595   3.185020   0.381130   6.816210   3.207800   0.002461  -0.002557   2.136370   0.001629  -0.001290   6.943830   0.806203   6.589030   6.990300   0.002325  -0.001856   4.655560   0.001515  -0.000992   6.406730   0.456321   4.055990   9.634480  -0.000129  -0.001316   6.416550   0.000081  -0.001197   2.701420  14.593900   2.523490   0.159943   1.136350  12.434600  -2.402500  -1.606460   2.024880  -0.000000   0.000000  -0.000000  -1.269430  12.742900  -5.491500  -1.845860   4.167960 -11.682000   1.139530  -2.146660  -2.166840   0.000000   0.000000   0.000000
